<?xml version="1.0" encoding="UTF-8"?>
<svg width="375px" height="812px" viewBox="0 0 375 812" version="1.1" xmlns="http://www.w3.org/2000/svg" xmlns:xlink="http://www.w3.org/1999/xlink">
    <title>交易</title>
    <defs>
        <filter id="filter-1">
            <feColorMatrix in="SourceGraphic" type="matrix" values="0 0 0 0 0.215542 0 0 0 0 0.337433 0 0 0 0 0.873755 0 0 0 1.000000 0"></feColorMatrix>
        </filter>
        <rect id="path-2" x="0" y="0" width="131" height="131" rx="20"></rect>
        <filter x="-17.9%" y="-16.4%" width="135.9%" height="135.9%" filterUnits="objectBoundingBox" id="filter-3">
            <feOffset dx="0" dy="2" in="SourceAlpha" result="shadowOffsetOuter1"></feOffset>
            <feGaussianBlur stdDeviation="7.5" in="shadowOffsetOuter1" result="shadowBlurOuter1"></feGaussianBlur>
            <feColorMatrix values="0 0 0 0 0.215686275   0 0 0 0 0.337254902   0 0 0 0 0.874509804  0 0 0 0.5 0" type="matrix" in="shadowBlurOuter1"></feColorMatrix>
        </filter>
        <rect id="path-4" x="0" y="0" width="99" height="99" rx="20"></rect>
        <filter x="-23.7%" y="-21.7%" width="147.5%" height="147.5%" filterUnits="objectBoundingBox" id="filter-5">
            <feOffset dx="0" dy="2" in="SourceAlpha" result="shadowOffsetOuter1"></feOffset>
            <feGaussianBlur stdDeviation="7.5" in="shadowOffsetOuter1" result="shadowBlurOuter1"></feGaussianBlur>
            <feColorMatrix values="0 0 0 0 0.215686275   0 0 0 0 0.337254902   0 0 0 0 0.874509804  0 0 0 0.15 0" type="matrix" in="shadowBlurOuter1"></feColorMatrix>
        </filter>
        <rect id="path-6" x="0" y="0" width="99" height="99" rx="20"></rect>
        <filter x="-23.7%" y="-21.7%" width="147.5%" height="147.5%" filterUnits="objectBoundingBox" id="filter-7">
            <feOffset dx="0" dy="2" in="SourceAlpha" result="shadowOffsetOuter1"></feOffset>
            <feGaussianBlur stdDeviation="7.5" in="shadowOffsetOuter1" result="shadowBlurOuter1"></feGaussianBlur>
            <feColorMatrix values="0 0 0 0 0.215686275   0 0 0 0 0.337254902   0 0 0 0 0.874509804  0 0 0 0.15 0" type="matrix" in="shadowBlurOuter1"></feColorMatrix>
        </filter>
        <filter id="filter-8">
            <feColorMatrix in="SourceGraphic" type="matrix" values="0 0 0 0 0.215686 0 0 0 0 0.337255 0 0 0 0 0.874510 0 0 0 1.000000 0"></feColorMatrix>
        </filter>
    </defs>
    <g id="交易" stroke="none" stroke-width="1" fill="none" fill-rule="evenodd">
        <rect fill="#F6F8FB" x="0" y="0" width="375" height="812"></rect>
        <path d="M375,0 L375,510 L97.677,510 L89.5502525,518.127417 L81.423,510 L0,510 L0,0 L375,0 Z" id="Combined-Shape" fill="#1D2238"></path>
        <g id="Buttons/Primary" transform="translate(0.000000, 424.000000)" filter="url(#filter-1)">
            <g>
                <rect id="Rectangle" fill="#3756DF" x="28" y="0" width="319" height="54" rx="10"></rect>
                <text id="CONTINUE" font-family="Helvetica" font-size="15" font-weight="normal" fill="#FFFFFF">
                    <tspan x="172.078857" y="33">BUY</tspan>
                </text>
            </g>
        </g>
        <g id="Bars-/-Status-Bar-/-iPhone-/-Dark" transform="translate(33.000000, 17.000000)">
            <g id="Battery" transform="translate(303.000000, 0.000000)">
                <path d="M18.9147863,0.833333333 C19.9618794,0.833333333 20.3486079,0.924684051 20.7332948,1.13041688 C21.0794397,1.31553717 21.3510962,1.58719368 21.5362165,1.93333853 C21.7419493,2.31802548 21.8333,2.70475396 21.8333,3.75184704 L21.8333,3.75184704 L21.8333,8.24815296 C21.8333,9.29524604 21.7419493,9.68197452 21.5362165,10.0666615 C21.3510962,10.4128063 21.0794397,10.6844628 20.7332948,10.8695831 C20.3486079,11.0753159 19.9618794,11.1666667 18.9147863,11.1666667 L18.9147863,11.1666667 L3.7518137,11.1666667 C2.70472062,11.1666667 2.31799215,11.0753159 1.9333052,10.8695831 C1.58716035,10.6844628 1.31550384,10.4128063 1.13038355,10.0666615 C0.924650717,9.68197452 0.8333,9.29524604 0.8333,8.24815296 L0.8333,8.24815296 L0.8333,3.75184704 C0.8333,2.70475396 0.924650717,2.31802548 1.13038355,1.93333853 C1.31550384,1.58719368 1.58716035,1.31553717 1.9333052,1.13041688 C2.31799215,0.924684051 2.70472062,0.833333333 3.7518137,0.833333333 L3.7518137,0.833333333 Z" id="Border" stroke="#FFFFFF" opacity="0.35"></path>
                <path d="M23.3333,4 L23.3333,8 C24.1380311,7.66122348 24.661338,6.87313328 24.661338,6 C24.661338,5.12686672 24.1380311,4.33877652 23.3333,4" id="Cap" fill="#FFFFFF" fill-rule="nonzero" opacity="0.4"></path>
                <path d="M4.04255685,2.33333333 L18.6240431,2.33333333 C19.218389,2.33333333 19.4339132,2.39521708 19.6511971,2.51142181 C19.8684811,2.62762654 20.0390068,2.79815226 20.1552115,3.01543622 C20.2714163,3.23272018 20.3333,3.44824434 20.3333,4.04259018 L20.3333,7.95740982 C20.3333,8.55175566 20.2714163,8.76727982 20.1552115,8.98456378 C20.0390068,9.20184774 19.8684811,9.37237346 19.6511971,9.48857819 C19.4339132,9.60478292 19.218389,9.66666667 18.6240431,9.66666667 L4.04255685,9.66666667 C3.44821101,9.66666667 3.23268684,9.60478292 3.01540288,9.48857819 C2.79811893,9.37237346 2.62759321,9.20184774 2.51138847,8.98456378 C2.39518374,8.76727982 2.3333,8.55175566 2.3333,7.95740982 L2.3333,4.04259018 C2.3333,3.44824434 2.39518374,3.23272018 2.51138847,3.01543622 C2.62759321,2.79815226 2.79811893,2.62762654 3.01540288,2.51142181 C3.23268684,2.39521708 3.44821101,2.33333333 4.04255685,2.33333333 Z" id="Capacity" fill="#FFFFFF" fill-rule="nonzero"></path>
            </g>
            <path d="M290.667069,2.61515008 C292.891802,2.61524747 295.031463,3.46935828 296.643817,5.00095062 C296.765231,5.11919529 296.959299,5.11770373 297.078879,4.99760682 L298.23949,3.82727719 C298.300039,3.76636438 298.333797,3.68385445 298.3333,3.59800543 C298.332792,3.5121564 298.29807,3.4300466 298.236813,3.3698455 C294.0049,-0.682384895 287.328569,-0.682384895 283.096657,3.3698455 C283.035354,3.43000192 283.000572,3.51208679 283,3.59793593 C282.999442,3.68378508 283.03314,3.76632009 283.093645,3.82727719 L284.254591,4.99760682 C284.374094,5.11788495 284.568312,5.11937767 284.689653,5.00095062 C286.302212,3.46925775 288.442119,2.61514447 290.667069,2.61515008 L290.667069,2.61515008 Z M290.667069,6.42273393 C291.889415,6.42265909 293.068141,6.87661235 293.97421,7.69638694 C294.09676,7.81273165 294.289808,7.81020931 294.409272,7.69070249 L295.568544,6.52037286 C295.629594,6.45898574 295.663468,6.37570878 295.662605,6.28917317 C295.661707,6.20263756 295.626146,6.12006595 295.563859,6.05993174 C292.804697,3.49552319 288.531784,3.49552319 285.772622,6.05993174 C285.710297,6.12006522 285.674737,6.2026782 285.673905,6.28924177 C285.673102,6.37580535 285.707094,6.45907439 285.768272,6.52037286 L286.92721,7.69070249 C287.046673,7.81020931 287.239722,7.81273165 287.362272,7.69638694 C288.267742,6.87715403 289.445531,6.42323962 290.667069,6.42273393 L290.667069,6.42273393 Z M292.894921,9.21580918 C292.956921,9.15501287 292.991064,9.07134893 292.989291,8.98457048 C292.987517,8.89779202 292.949983,8.81559071 292.885551,8.75737435 C291.604891,7.67510315 289.729248,7.67510315 288.448588,8.75737435 C288.384111,8.8155439 288.346516,8.89771934 288.344679,8.98449824 C288.342841,9.07127714 288.376925,9.15496749 288.438883,9.21580918 L290.444518,11.2378044 C290.503302,11.2972294 290.583446,11.3306727 290.667069,11.3306727 C290.750693,11.3306727 290.830837,11.2972294 290.88962,11.2378044 L292.894921,9.21580918 Z" id="Wifi" fill="#FFFFFF" fill-rule="nonzero"></path>
            <path d="M262,7.33333367 L263,7.33333367 C263.552285,7.33333367 264,7.78104892 264,8.33333367 L264,10.3333337 C264,10.8856184 263.552285,11.3333337 263,11.3333337 L262,11.3333337 C261.447715,11.3333337 261,10.8856184 261,10.3333337 L261,8.33333367 C261,7.78104892 261.447715,7.33333367 262,7.33333367 L262,7.33333367 Z M266.666667,5.33333367 L267.666667,5.33333367 C268.218951,5.33333367 268.666667,5.78104892 268.666667,6.33333367 L268.666667,10.3333337 C268.666667,10.8856184 268.218951,11.3333337 267.666667,11.3333337 L266.666667,11.3333337 C266.114382,11.3333337 265.666667,10.8856184 265.666667,10.3333337 L265.666667,6.33333367 C265.666667,5.78104892 266.114382,5.33333367 266.666667,5.33333367 Z M271.333333,3.00000033 L272.333333,3.00000033 C272.885618,3.00000033 273.333333,3.44771558 273.333333,4.00000033 L273.333333,10.3333337 C273.333333,10.8856184 272.885618,11.3333337 272.333333,11.3333337 L271.333333,11.3333337 C270.781049,11.3333337 270.333333,10.8856184 270.333333,10.3333337 L270.333333,4.00000033 C270.333333,3.44771558 270.781049,3.00000033 271.333333,3.00000033 Z M276,0.666667 L277,0.666667 C277.552285,0.666667 278,1.11438225 278,1.666667 L278,10.3333337 C278,10.8856184 277.552285,11.3333337 277,11.3333337 L276,11.3333337 C275.447715,11.3333337 275,10.8856184 275,10.3333337 L275,1.666667 C275,1.11438225 275.447715,0.666667 276,0.666667 L276,0.666667 Z" id="Cellular-Connection" fill="#FFFFFF" fill-rule="nonzero"></path>
            <g id="Time-Style" fill="#FFFFFF" fill-rule="nonzero">
                <path d="M4.28408203,11.2563477 C6.97207031,11.2563477 8.56875,9.15429688 8.56875,5.58740234 C8.56875,2.08642578 6.86953125,0.167480469 4.34267578,0.167480469 C2.04287109,0.167480469 0.416894531,1.71289062 0.416894531,3.87353516 C0.416894531,5.90234375 1.88173828,7.38183594 3.89589844,7.38183594 C5.13369141,7.38183594 6.13710938,6.81054688 6.63515625,5.80712891 L6.75966797,5.80712891 C6.73769531,8.29003906 5.85146484,9.7109375 4.30605469,9.7109375 C3.39785156,9.7109375 2.67275391,9.21289062 2.44570313,8.40722656 L0.563378906,8.40722656 C0.870996094,10.128418 2.35048828,11.2563477 4.28408203,11.2563477 Z M4.35,5.92431641 C3.11953125,5.92431641 2.26992188,5.06005859 2.26992188,3.81494141 C2.26992188,2.62109375 3.16347656,1.70556641 4.35732422,1.70556641 C5.55117188,1.70556641 6.44472656,2.63574219 6.44472656,3.8515625 C6.44472656,5.05273438 5.57314453,5.92431641 4.35,5.92431641 Z M11.5866211,4.15917969 C12.2824219,4.15917969 12.7584961,3.67578125 12.7584961,3.02392578 C12.7584961,2.37207031 12.2824219,1.88867188 11.5866211,1.88867188 C10.8981445,1.88867188 10.4147461,2.37207031 10.4147461,3.02392578 C10.4147461,3.67578125 10.8981445,4.15917969 11.5866211,4.15917969 Z M11.5866211,9.53515625 C12.2824219,9.53515625 12.7584961,9.04443359 12.7584961,8.39990234 C12.7584961,7.74804688 12.2824219,7.26464844 11.5866211,7.26464844 C10.8981445,7.26464844 10.4147461,7.74804688 10.4147461,8.39990234 C10.4147461,9.04443359 10.8981445,9.53515625 11.5866211,9.53515625 Z M21.5698242,11 L21.5698242,8.97119141 L22.9980469,8.97119141 L22.9980469,7.41113281 L21.5698242,7.41113281 L21.5698242,0.431152344 L18.9038086,0.431152344 C17.4682617,2.61376953 15.9667969,5.04541016 14.597168,7.42578125 L14.597168,8.97119141 L19.7607422,8.97119141 L19.7607422,11 L21.5698242,11 Z M19.7900391,7.45507812 L16.3476563,7.45507812 L16.3476563,7.34521484 C17.3803711,5.55078125 18.6035156,3.59521484 19.6875,1.93994141 L19.7900391,1.93994141 L19.7900391,7.45507812 Z M28.9163086,11 L28.9163086,0.431152344 L27.0339844,0.431152344 L24.2727539,2.37207031 L24.2727539,4.15185547 L26.9021484,2.29150391 L27.0266602,2.29150391 L27.0266602,11 L28.9163086,11 Z" id="9:41"></path>
            </g>
        </g>
        <g id="iPhone-X/Home-Indicator/Home-Indicator---On-Light" transform="translate(0.000000, 778.000000)">
            <rect id="Rectangle" x="0" y="0" width="375" height="34"></rect>
            <rect id="Rectangle-24" fill="#F6F8FB" x="121" y="21" width="134" height="5" rx="2.5"></rect>
        </g>
        <g id="iPhone-X/Home-Indicator/Home-Indicator---On-Light" transform="translate(0.000000, 778.000000)">
            <rect id="Rectangle" x="0" y="0" width="375" height="34"></rect>
            <rect id="Rectangle-24" fill="#1D2238" x="121" y="21" width="134" height="5" rx="2.5"></rect>
        </g>
        <g id="Group" transform="translate(28.000000, 204.000000)">
            <text id="0" font-family="Helvetica" font-size="10" font-weight="normal" fill="#F6F8FB">
                <tspan x="0" y="151">0</tspan>
            </text>
            <text id="5k" font-family="Helvetica" font-size="10" font-weight="normal" fill="#F6F8FB">
                <tspan x="0" y="104">5k</tspan>
            </text>
            <text id="10k" font-family="Helvetica" font-size="10" font-weight="normal" fill="#F6F8FB">
                <tspan x="0" y="57">10k</tspan>
            </text>
            <text id="15k" font-family="Helvetica" font-size="10" font-weight="normal" fill="#F6F8FB">
                <tspan x="0" y="10">15k</tspan>
            </text>
            <rect id="Rectangle" fill="#465180" x="29" y="148" width="287" height="1" rx="0.25"></rect>
            <rect id="Rectangle-Copy-25" fill="#465180" x="29" y="101" width="287" height="1" rx="0.25"></rect>
            <rect id="Rectangle-Copy-26" fill="#465180" x="29" y="7" width="287" height="1" rx="0.25"></rect>
            <rect id="Rectangle-Copy-27" fill="#465180" x="29" y="54" width="287" height="1" rx="0.25"></rect>
            <text id="23" font-family="Helvetica" font-size="10" font-weight="normal" line-spacing="8" fill="#F6F8FB">
                <tspan x="305.423567" y="175">23</tspan>
            </text>
            <text id="21" font-family="Helvetica" font-size="10" font-weight="normal" line-spacing="8" fill="#F6F8FB">
                <tspan x="268.423567" y="175">2</tspan>
                <tspan x="268.423567" y="183">1</tspan>
            </text>
            <text id="19" font-family="Helvetica" font-size="10" font-weight="normal" line-spacing="8" fill="#F6F8FB">
                <tspan x="230.923567" y="175">19</tspan>
            </text>
            <text id="17" font-family="Helvetica" font-size="10" font-weight="normal" line-spacing="8" fill="#F6F8FB">
                <tspan x="193.923567" y="175">17</tspan>
            </text>
            <text id="15" font-family="Helvetica" font-size="10" font-weight="normal" line-spacing="8" fill="#F6F8FB">
                <tspan x="156.423567" y="175">1</tspan>
                <tspan x="156.423567" y="183">5</tspan>
            </text>
            <text id="13" font-family="Helvetica" font-size="10" font-weight="normal" line-spacing="8" fill="#F6F8FB">
                <tspan x="120.423567" y="175">1</tspan>
                <tspan x="120.423567" y="183">3</tspan>
            </text>
            <text id="11" font-family="Helvetica" font-size="10" font-weight="normal" line-spacing="8" fill="#F6F8FB">
                <tspan x="84.2922192" y="175">1</tspan>
                <tspan x="83.9235669" y="183">1</tspan>
            </text>
            <text id="9" font-family="Helvetica" font-size="10" font-weight="normal" line-spacing="8" fill="#F6F8FB">
                <tspan x="49.4235669" y="175">9</tspan>
            </text>
            <rect id="Rectangle" fill="#3756DF" x="48" y="119" width="9" height="29" rx="4.5"></rect>
            <rect id="Rectangle-Copy-42" fill="#3756DF" x="29" y="86" width="9" height="62" rx="4.5"></rect>
            <rect id="Rectangle-Copy-28" fill="#3756DF" x="66" y="100" width="9" height="48" rx="4.5"></rect>
            <rect id="Rectangle-Copy-29" fill="#3756DF" x="85" y="109" width="9" height="39" rx="4.5"></rect>
            <rect id="Rectangle-Copy-30" fill="#3756DF" x="103" y="119" width="9" height="29" rx="4.5"></rect>
            <rect id="Rectangle-Copy-31" fill="#3756DF" x="122" y="88" width="9" height="60" rx="4.5"></rect>
            <rect id="Rectangle-Copy-32" fill="#3756DF" x="140" y="61" width="9" height="87" rx="4.5"></rect>
            <rect id="Rectangle-Copy-33" fill="#3756DF" x="159" y="78" width="9" height="70" rx="4.5"></rect>
            <rect id="Rectangle-Copy-34" fill="#3756DF" x="177" y="68" width="9" height="80" rx="4.5"></rect>
            <rect id="Rectangle-Copy-35" fill="#3756DF" x="196" y="44" width="9" height="104" rx="4.5"></rect>
            <rect id="Rectangle-Copy-36" fill="#3756DF" x="214" y="13" width="9" height="135" rx="4.5"></rect>
            <rect id="Rectangle-Copy-37" fill="#3756DF" x="233" y="37" width="9" height="111" rx="4.5"></rect>
            <rect id="Rectangle-Copy-38" fill="#3756DF" x="251" y="78" width="9" height="70" rx="4.5"></rect>
            <rect id="Rectangle-Copy-39" fill="#3756DF" x="270" y="93" width="9" height="55" rx="4.5"></rect>
            <rect id="Rectangle-Copy-40" fill="#3756DF" x="288" y="61" width="9" height="87" rx="4.5"></rect>
            <rect id="Rectangle-Copy-41" fill="#3756DF" x="307" y="34" width="9" height="114" rx="4.5"></rect>
        </g>
        <g id="Group">
            <rect id="Rectangle" x="0" y="0" width="375" height="88"></rect>
            <text id="Welcome-to" font-family="Helvetica" font-size="15" font-weight="normal" fill="#1D2238">
                <tspan x="147.070312" y="72">Coin Market</tspan>
            </text>
            <g id="Icons/Previous-4" transform="translate(23.000000, 54.000000)" fill="#FFFFFF">
                <path d="M16,17 C16.5522847,17 17,17.4477153 17,18 C17,18.5522847 16.5522847,19 16,19 L5,19 C4.44771525,19 4,18.5522847 4,18 C4,17.4477153 4.44771525,17 5,17 L16,17 Z M19,11 C19.5522847,11 20,11.4477153 20,12 C20,12.5522847 19.5522847,13 19,13 L5,13 C4.44771525,13 4,12.5522847 4,12 C4,11.4477153 4.44771525,11 5,11 L19,11 Z M11,5 C11.5522847,5 12,5.44771525 12,6 C12,6.55228475 11.5522847,7 11,7 L5,7 C4.44771525,7 4,6.55228475 4,6 C4,5.44771525 4.44771525,5 5,5 L11,5 Z" id="Combined-Shape"></path>
            </g>
            <g id="Icons/Previous-4" transform="translate(328.000000, 54.000000)" fill="#FFFFFF">
                <path d="M11,4 C14.8659932,4 18,7.13400675 18,11 C18,12.5723496 17.4815869,14.0236173 16.6063605,15.1922034 L19.2426407,17.8284271 C19.633165,18.2189514 19.633165,18.8521164 19.2426407,19.2426407 C18.8521164,19.633165 18.2189514,19.633165 17.8284271,19.2426407 L15.1922034,16.6063605 C14.0236173,17.4815869 12.5723496,18 11,18 C7.13400675,18 4,14.8659932 4,11 C4,7.13400675 7.13400675,4 11,4 Z M11,6 C8.23857625,6 6,8.23857625 6,11 C6,13.7614237 8.23857625,16 11,16 C13.7614237,16 16,13.7614237 16,11 C16,8.23857625 13.7614237,6 11,6 Z" id="Combined-Shape"></path>
            </g>
        </g>
        <text id="$6.034.90" font-family="Helvetica" font-size="30" font-weight="normal" fill="#3756DF">
            <tspan x="28" y="133">$6.034.90</tspan>
        </text>
        <text id="Bitcoin-Value" font-family="Helvetica" font-size="10" font-weight="normal" line-spacing="18" fill="#465180">
            <tspan x="28" y="156">Bitcoin Value</tspan>
        </text>
        <text id="1-week" font-family="Helvetica" font-size="10" font-weight="normal" line-spacing="18" fill="#F6F8FB">
            <tspan x="296" y="116">1 week</tspan>
        </text>
        <g id="编组" transform="translate(328.000000, 104.000000)" fill="#3756DF">
            <g id="left-arrow" transform="translate(6.000000, 8.000000)">
                <path d="M0.641938567,0.841542662 C0.493802048,0.98959727 0.419795222,1.16505119 0.419795222,1.36769966 C0.419795222,1.57038908 0.493802048,1.745843 0.641938567,1.89389761 L5.88045051,7.1323686 C6.02858703,7.28042321 6.20391809,7.35451195 6.40660751,7.35451195 C6.60929693,7.35451195 6.78475085,7.28042321 6.93276451,7.1323686 L12.1712765,1.89389761 C12.319413,1.74588396 12.3935836,1.57043003 12.3935836,1.36769966 C12.3935836,1.16505119 12.319413,0.98959727 12.1712765,0.841542662 C12.0232628,0.693406143 11.8478089,0.619276451 11.6451195,0.619276451 L1.16809556,0.619276451 C0.965406143,0.619276451 0.790116041,0.693406143 0.641938567,0.841542662 Z" id="Path"></path>
            </g>
        </g>
        <g id="Group-2" transform="translate(28.000000, 547.000000)">
            <g id="Rectangle">
                <use fill="black" fill-opacity="1" filter="url(#filter-3)" xlink:href="#path-2"></use>
                <use fill="#3756DF" fill-rule="evenodd" xlink:href="#path-2"></use>
            </g>
            <g id="Icons/Currency-#1" transform="translate(28.000000, 23.000000)" fill="#FFFFFF">
                <path d="M40.1131153,66.5 L40.1131153,60.7930413 L42.2067823,60.7930413 C50.3638532,60.7930413 57,54.4422662 57,46.6366334 C57.0005634,42.8662484 55.4587812,39.3140651 52.6584875,36.6346885 C52.1965165,36.1926211 51.7077687,35.7869655 51.1992906,35.4117881 C52.8259132,33.3061013 53.7895975,30.7044035 53.7895975,27.8907075 C53.7901613,24.5127619 52.4090401,21.3306314 49.9007548,18.9304128 C47.3927515,16.5304639 44.0673499,15.2088467 40.5378805,15.2091165 L40.1131153,15.2091165 L40.1131153,9.5 L31.6572712,9.5 L31.6572712,15.208577 L19,15.208577 L19,23.3001107 L23.0018692,23.3001107 L23.0038422,52.7012379 L19,52.7012379 L19,60.7927716 L31.6569893,60.7927716 L31.6569893,66.5 L40.1131153,66.5 L40.1131153,66.5 Z M40.5381624,23.3001107 C41.8090758,23.3001107 43.0106512,23.7799387 43.9216275,24.6516666 C44.8326037,25.5233945 45.3340353,26.6732014 45.3337536,27.8898984 C45.3337536,30.4174238 43.1879421,32.4737522 40.5485913,32.479686 L31.4574314,32.479686 L31.4574314,23.3001107 L40.5381624,23.3001107 Z M31.4596863,40.5714894 L42.2067823,40.57095 C43.888086,40.57095 45.4763753,41.2047868 46.6793601,42.3556726 C47.8823449,43.5065584 48.5444374,45.0264181 48.5441557,46.6358242 C48.5441557,49.9803248 45.7013008,52.7012379 42.2067823,52.7012379 L31.4599682,52.7012379 L31.4599682,40.5714894 L31.4596863,40.5714894 Z" id="Shape"></path>
            </g>
        </g>
        <text id="Uniswap" font-family="PingFangSC-Regular, PingFang SC" font-size="16" font-weight="normal" fill="#FFFFFF">
            <tspan x="62" y="658">Uniswap</tspan>
        </text>
        <g id="Group-3" transform="translate(179.000000, 579.000000)">
            <g id="Rectangle-Copy">
                <use fill="black" fill-opacity="1" filter="url(#filter-5)" xlink:href="#path-4"></use>
                <use fill="#FFFFFF" fill-rule="evenodd" xlink:href="#path-4"></use>
            </g>
            <g id="Icons/Currency-#1" transform="translate(30.000000, 30.000000)" fill="#3756DF">
                <path d="M21.5339434,3.33333333 L18.6248628,3.33333333 L6.66666667,22.4088542 L18.6248628,36.6666667 L21.5339434,36.6666667 L33.3333333,22.4088542 L21.5339434,3.33333333 Z M18.6248628,17.6168314 L11.5285812,19.9745687 L18.6248628,8.65458171 L18.6248628,17.6168314 Z M18.6248628,20.394694 L18.6248628,24.4408163 L12.5356799,22.4177551 L18.6248628,20.394694 Z M21.5339434,20.3911336 L27.6265354,22.4177551 L21.5339434,24.4443766 L21.5339434,20.3911336 Z M28.4680097,19.919637 L21.5336593,17.6130168 L21.5336593,8.70925905 L28.4680097,19.919637 Z M20.0734372,34.0566508 L12.6825544,25.2441915 L20.0862213,27.7041626 L27.3225592,25.2968343 L20.0734372,34.0566508 Z" id="Shape"></path>
            </g>
        </g>
        <g id="Group-4" transform="translate(294.000000, 579.000000)">
            <g id="Rectangle-Copy-2">
                <use fill="black" fill-opacity="1" filter="url(#filter-7)" xlink:href="#path-6"></use>
                <use fill="#FFFFFF" fill-rule="evenodd" xlink:href="#path-6"></use>
            </g>
            <g id="编组" transform="translate(30.000000, 30.000000)" fill="#3756DF">
                <g id="iconfinder_XRP-alt_1175359" transform="translate(5.000000, 5.000000)">
                    <path d="M25.4369302,18.4381057 C24.4219884,17.8880617 23.3177209,17.6332599 22.2301686,17.6417181 L22.2393953,17.6365639 C20.7473372,17.6534802 19.5233895,16.5066079 19.5058721,15.0753304 C19.4886221,13.6630837 20.6511919,12.5025991 22.1140988,12.4543612 L22.1140988,12.4537004 L22.1114244,12.4523789 C23.2180988,12.4470925 24.3377442,12.1688987 25.3577674,11.5871366 C28.4079419,9.84726872 29.4107151,6.06462555 27.5974593,3.13823789 C25.7838023,0.211718062 21.8411744,-0.750264317 18.791,0.989603524 C15.7408256,2.72933921 14.738186,6.51211454 16.5515756,9.4385022 C17.3068314,10.6579295 16.8893547,12.2339207 15.6184709,12.9589427 C14.3656395,13.6735242 12.7524302,13.2938326 11.9828663,12.1153744 L11.9821977,12.1156388 L11.9821977,12.1189427 C11.427657,11.2003084 10.6197151,10.406696 9.58685465,9.84687225 C6.4975,8.17215859 2.57760465,9.21726872 0.832145349,12.1817181 C-0.913313953,15.1455066 0.176511628,18.9062115 3.266,20.580793 C6.35562209,22.2555066 10.2749826,21.2102643 12.0205756,18.2459471 C12.0311395,18.2281057 12.0405,18.2096035 12.0507965,18.19163 L12.0507965,18.1959912 L12.0514651,18.1962555 C12.7929477,16.9996916 14.398936,16.5851101 15.6682151,17.2731278 C16.9556802,17.9710573 17.4093953,19.5377974 16.6822209,20.7726872 C14.9364942,23.7371366 16.0264535,27.4975771 19.1158081,29.1720264 C22.2052965,30.8468722 26.1250581,29.8014978 27.8705174,26.8371806 C29.6157093,23.8731278 28.5262849,20.1128194 25.4369302,18.4381057 Z" id="XRP"></path>
                </g>
            </g>
        </g>
        <g id="iPhone-X/Home-Indicator/Home-Indicator---On-Light" transform="translate(0.000000, 778.000000)">
            <rect id="Rectangle" x="0" y="0" width="375" height="34"></rect>
            <rect id="Rectangle-24" fill="#1D2238" x="121" y="21" width="134" height="5" rx="2.5"></rect>
        </g>
        <g id="System/Tabbar" transform="translate(0.000000, 718.000000)">
            <rect id="Rectangle" fill="#F6F8FB" x="0" y="0" width="375" height="94"></rect>
            <g id="编组" transform="translate(33.000000, 13.000000)" fill="#3756DF">
                <g id="line-chart" transform="translate(3.000000, 3.000000)">
                    <path d="M3.3125,6.2375 C4.64265867,6.2375 5.73443269,7.27606767 5.81964636,8.58502732 L5.825,8.75 L5.825,14.6875 C5.825,16.0730819 4.69808195,17.2 3.3125,17.2 C1.98234133,17.2 0.890567306,16.1614323 0.805353638,14.8524727 L0.8,14.6875 L0.8,8.75 C0.8,7.36441805 1.92691805,6.2375 3.3125,6.2375 Z M9,9.6125 C10.3301587,9.6125 11.4219327,10.6510677 11.5071464,11.9600273 L11.5125,12.125 L11.5125,14.6875 C11.5125,16.0730819 10.3855819,17.2 9,17.2 C7.66984133,17.2 6.57806731,16.1614323 6.49285364,14.8524727 L6.4875,14.6875 L6.4875,12.125 C6.4875,10.7394181 7.61441805,9.6125 9,9.6125 Z M14.6875,6.70625 C16.0176587,6.70625 17.1094327,7.74481767 17.1946464,9.05377732 L17.2,9.21875 L17.2,14.6875 C17.2,16.0730819 16.0730819,17.2 14.6875,17.2 C13.3573413,17.2 12.2655673,16.1614323 12.1803536,14.8524727 L12.175,14.6875 L12.175,9.21875 C12.175,7.83316805 13.3019181,6.70625 14.6875,6.70625 Z M3.3125,7.8875 C2.87365257,7.8875 2.51007377,8.21732131 2.4567353,8.64199222 L2.45,8.75 L2.45,14.6875 C2.45,15.1629181 2.83708195,15.55 3.3125,15.55 C3.75134743,15.55 4.11492623,15.2201787 4.1682647,14.7955078 L4.175,14.6875 L4.175,8.75 C4.175,8.2746015 3.78790635,7.8875 3.3125,7.8875 Z M9,11.2625 C8.56115257,11.2625 8.19757377,11.5923213 8.1442353,12.0169922 L8.1375,12.125 L8.1375,14.6875 C8.1375,15.1629181 8.52458195,15.55 9,15.55 C9.43884743,15.55 9.80242623,15.2201787 9.8557647,14.7955078 L9.8625,14.6875 L9.8625,12.125 C9.8625,11.6496015 9.47540635,11.2625 9,11.2625 Z M14.6875,8.35625 C14.2486526,8.35625 13.8850738,8.68607131 13.8317353,9.11074222 L13.825,9.21875 L13.825,14.6875 C13.825,15.1629181 14.2120819,15.55 14.6875,15.55 C15.1263474,15.55 15.4899262,15.2201787 15.5432647,14.7955078 L15.55,14.6875 L15.55,9.21875 C15.55,8.7433515 15.1629064,8.35625 14.6875,8.35625 Z M5.00198604,3.28710467 L5.16082056,3.40499953 L9.1470984,7.02496097 C9.42076024,7.23274207 9.79987517,7.22048716 10.0593491,7.00883129 L10.1490137,6.92225408 L13.6212386,3.2749104 C13.9354096,2.94489891 14.4576056,2.93205259 14.7875896,3.24623861 C15.0900989,3.53422746 15.1261021,3.99701055 14.8879993,4.32634386 L14.8162605,4.41262178 L11.3607346,8.04224758 C10.9039815,8.54535487 10.2612038,8.8234375 9.59103125,8.8234375 C9.1236829,8.8234375 8.66741147,8.68793865 8.2756253,8.42864836 L8.1005691,8.30004464 L4.11436371,4.68016651 C3.86583771,4.49137686 3.53218266,4.48096242 3.28169602,4.63763087 L3.19199076,4.70419149 L2.20517194,5.68029148 C1.88121278,6.00070334 1.35882438,5.99784563 1.03849882,5.67393109 C0.744751046,5.37696945 0.722673198,4.91329761 0.970576862,4.59127062 L1.04487944,4.50718861 L2.07200776,3.4925143 C2.89389495,2.75332299 4.09921388,2.67761957 5.00198604,3.28710467 Z M15.125,0.8 C16.2195784,0.8 17.1186684,1.65149969 17.194781,2.72700995 L17.2,2.875 L17.2,4.5625 C17.2,5.01814445 16.8306444,5.3875 16.375,5.3875 C15.9544051,5.3875 15.6073345,5.07278284 15.5564278,4.66598812 L15.55,4.5625 L15.55,2.875 C15.55,2.66685062 15.3992192,2.49294211 15.2012486,2.45686552 L15.125,2.45 L13.4375,2.45 C12.9818556,2.45 12.6125,2.08064445 12.6125,1.625 C12.6125,1.20440512 12.9272172,0.857334516 13.3340119,0.806427765 L13.4375,0.8 L15.125,0.8 Z" id="Color"></path>
                </g>
            </g>
            <g id="编组" transform="translate(257.000000, 11.000000)">
                <g id="computer" transform="translate(3.000000, 3.000000)">
                    <path d="M15.125,13 C16.2969462,13 17.25,13.9530538 17.25,15.125 C17.25,16.245992 16.3780188,17.166712 15.2765609,17.2446555 L15.125,17.25 L2.875,17.25 C1.70305381,17.25 0.75,16.2969462 0.75,15.125 C0.75,14.004008 1.62198118,13.083288 2.72343915,13.0053445 L2.875,13 L15.125,13 Z M15.125,14.75 L2.875,14.75 C2.66844619,14.75 2.5,14.9184462 2.5,15.125 C2.5,15.3057346 2.62896661,15.457293 2.79958318,15.4923587 L2.875,15.5 L15.125,15.5 C15.3315538,15.5 15.5,15.3315538 15.5,15.125 C15.5,14.9184462 15.3315538,14.75 15.125,14.75 Z M15.125,9.78125 C15.5710849,9.78125 15.9391906,10.1150414 15.9931827,10.54649 L16,10.65625 L16,11.53125 C16,12.0145087 15.6082587,12.40625 15.125,12.40625 C14.6789151,12.40625 14.3108094,12.0724586 14.2568173,11.64101 L14.25,11.53125 L14.25,10.65625 C14.25,10.1729913 14.6417413,9.78125 15.125,9.78125 Z M7.15625,2.9375 C7.63950869,2.9375 8.03125,3.32924131 8.03125,3.8125 C8.03125,4.25858494 7.69745859,4.62669058 7.26601002,4.68068266 L7.15625,4.6875 L6,4.6875 C4.81125572,4.6875 3.83453173,5.61469298 3.75520185,6.78370511 L3.75,6.9375 L3.75,11.53125 C3.75,12.0145087 3.35825869,12.40625 2.875,12.40625 C2.42891506,12.40625 2.06080942,12.0724586 2.00681734,11.64101 L2,11.53125 L2,6.9375 C2,4.79852188 3.68708825,3.04661611 5.80064327,2.94240417 L6,2.9375 L7.15625,2.9375 Z" id="Shape" fill="#3756DF"></path>
                    <path d="M12.859375,0.75 C14.0392858,0.75 15.1446187,1.20889501 15.9691555,2.04141865 C16.7959551,2.87620366 17.2455028,3.98740406 17.234176,5.16777415 C17.2230098,6.33128209 16.7597965,7.42264635 15.930805,8.23854978 C15.1635591,8.99370696 14.1634134,9.43410839 13.0935289,9.49317004 L12.8454688,9.5 L12.5891159,9.49283341 C11.9946946,9.45941029 11.4269481,9.30922605 10.8969506,9.04535839 C10.6411949,8.91802168 10.3391096,8.94880404 10.1148121,9.11754159 L10.0345892,9.18724545 L9.97806609,9.24376855 C9.81304683,9.40874468 9.59023532,9.5 9.35925,9.5 C9.24489203,9.5 9.13129567,9.47759775 9.02451221,9.4333743 C8.7338663,9.31297829 8.53314211,9.04750203 8.49212496,8.74140994 L8.48436608,8.62492558 L8.48454104,5.16443168 C8.47416852,3.99266759 8.92529033,2.88548634 9.75372588,2.04906851 C10.5830552,1.21178967 11.6868231,0.75 12.859375,0.75 Z M12.859375,2.5 C12.1566634,2.5 11.4961276,2.77674718 10.9970945,3.28057978 C10.5480094,3.73401017 10.2840886,4.31671335 10.2407339,4.94309499 L10.2345,5.15338917 L10.234,7.241 L10.3474174,7.22624496 L10.5645938,7.21678125 C10.8845011,7.21678125 11.2016699,7.27825255 11.5001552,7.39914217 L11.6768768,7.47878971 C11.9782964,7.62883424 12.3003066,7.71716673 12.6377707,7.742443 L12.8420625,7.75003125 C14.2865453,7.75011687 15.4704854,6.58363661 15.4842303,5.15100522 C15.4910594,4.43997677 15.2219643,3.77393133 14.7257729,3.27291586 C14.2319528,2.77427455 13.5700393,2.5 12.859375,2.5 Z" id="Shape" fill="#3AD29F"></path>
                </g>
            </g>
            <g filter="url(#filter-8)" id="应用程序" stroke-linecap="round" stroke-linejoin="round">
                <g transform="translate(197.000000, 16.000000)">
                    <rect id="矩形" stroke="#000000" stroke-width="2" x="0" y="0" width="6" height="6" rx="2"></rect>
                    <rect id="矩形" stroke="#000000" stroke-width="2" x="9" y="0" width="6" height="6" rx="2"></rect>
                    <rect id="矩形" stroke="#000000" stroke-width="2" x="0" y="9" width="6" height="6" rx="2"></rect>
                    <line x1="9" y1="11.5" x2="15" y2="11.5" id="路径" stroke="#000000" stroke-width="2"></line>
                    <line x1="11.5" y1="9" x2="11.5" y2="15" id="路径" stroke="#000000" stroke-width="2"></line>
                </g>
            </g>
            <g id="编组" transform="translate(321.000000, 13.000000)" fill="#3756DF">
                <g id="money" transform="translate(4.000000, 3.000000)">
                    <path d="M7.28148148,9.88518519 C7.97031514,9.88518519 8.64448132,10.0072116 9.28447584,10.2478117 C9.74589087,10.4212831 9.97931749,10.9359727 9.8058682,11.3974478 C9.63235714,11.8588497 9.11756179,12.0923193 8.65625682,11.9188223 C8.21775816,11.753952 7.75545571,11.6703704 7.28148148,11.6703704 L7.28148148,11.6703704 L6.39259259,11.6703704 C4.23830765,11.6703704 2.48518519,13.4234928 2.48518519,15.5777778 C2.48518519,16.0707521 2.08556691,16.4703704 1.59259259,16.4703704 C1.09961828,16.4703704 0.7,16.0707521 0.7,15.5777778 C0.7,12.4386109 3.25342569,9.88518519 6.39259259,9.88518519 L6.39259259,9.88518519 Z M12.5555556,8.52222222 C13.0485299,8.52222222 13.4481481,8.9218405 13.4481481,9.41481481 L13.4481481,9.41481481 L13.448,9.636 L13.7133895,9.71597887 L13.8181785,9.75141115 L14.0329565,9.83064484 C14.4924249,10.0092997 14.7200482,10.5266456 14.541346,10.9860764 C14.3626587,11.4455133 13.8453391,11.6731113 13.3859285,11.4944442 C12.9384712,11.3204252 12.6339459,11.2654222 12.3037037,11.2654222 C12.2004999,11.2654222 12.1148148,11.3519748 12.1148148,11.4592593 C12.1148148,11.5478073 12.2730844,11.6530862 12.5572148,11.6530667 L12.5572148,11.6530667 L12.7156745,11.6584667 C13.8148444,11.7336294 14.6925926,12.5842346 14.6925926,13.6320889 C14.6925926,14.1649529 14.4763935,14.6671628 14.0863782,15.042999 C13.9406504,15.1834506 13.7766923,15.3002372 13.5995973,15.3906767 L13.5995973,15.3906767 L13.448,15.458 L13.4481481,15.5777778 C13.4481481,16.032831 13.107645,16.4083382 12.6675223,16.463416 L12.6675223,16.463416 L12.5555556,16.4703704 C12.0625812,16.4703704 11.662963,16.0707521 11.662963,15.5777778 L11.662963,15.5777778 L11.662,15.47 L11.6334547,15.4641146 C11.45156,15.4203122 11.2698555,15.3679968 11.0933869,15.3079575 L11.0933869,15.3079575 L10.8332417,15.2122044 C10.3751412,15.0301067 10.1513922,14.5110989 10.3335142,14.0530047 C10.5155939,13.5949492 11.0345816,13.3712502 11.492686,13.5532779 C11.9186185,13.7225917 12.4297743,13.8259556 12.6839407,13.8259556 C12.8008779,13.8259556 12.9074074,13.7254546 12.9074074,13.6321185 C12.9074074,13.5508723 12.7591706,13.4382815 12.5572148,13.4382815 C11.3011319,13.4382815 10.3296296,12.5920497 10.3296296,11.4592593 C10.3296296,10.6288863 10.8458975,9.90269051 11.5918511,9.61327301 L11.5918511,9.61327301 L11.662,9.589 L11.662963,9.41481481 C11.662963,8.9597616 12.0034661,8.58425436 12.4435889,8.52917664 L12.4435889,8.52917664 Z M6.77777778,0.7 C9.1490632,0.7 11.0777778,2.62871458 11.0777778,5 C11.0777778,7.37128542 9.1490632,9.3 6.77777778,9.3 C4.40649235,9.3 2.47777778,7.37128542 2.47777778,5 C2.47777778,2.62871458 4.40649235,0.7 6.77777778,0.7 Z M6.77777778,2.18518519 C5.22568889,2.18518519 3.96296296,3.44791111 3.96296296,5 C3.96296296,6.55208889 5.22568889,7.81481481 6.77777778,7.81481481 C8.32986667,7.81481481 9.59259259,6.55208889 9.59259259,5 C9.59259259,3.44791111 8.32986667,2.18518519 6.77777778,2.18518519 Z" id="Color"></path>
                </g>
            </g>
            <g id="Group" transform="translate(12.000000, 3.000000)">
                <rect id="Rectangle" fill="#3756DF" x="0" y="0" width="137" height="44" rx="15"></rect>
                <text id="Difi-Exchange" font-family="PingFangSC-Regular, PingFang SC" font-size="15" font-weight="normal" fill="#FFFFFF">
                    <tspan x="20.38" y="27">Difi Exchange</tspan>
                </text>
            </g>
        </g>
    </g>
</svg>