<?xml version="1.0" encoding="UTF-8"?>
<svg width="43px" height="9px" viewBox="0 0 43 9" version="1.1" xmlns="http://www.w3.org/2000/svg" xmlns:xlink="http://www.w3.org/1999/xlink">
    <!-- Generator: Sketch 63.1 (92452) - https://sketch.com -->
    <title>页面 1</title>
    <desc>Created with Sketch.</desc>
    <g id="页面-1" stroke="none" stroke-width="1" fill="none" fill-rule="evenodd">
        <g id="ar" transform="translate(0.000000, 4.000000)" fill="#000000" fill-rule="nonzero">
            <path d="M40.6631254,1 L0.336874626,1 C0.150835614,1 0,0.776125 0,0.5 C0,0.223875 0.150835614,0 0.336874626,0 L40.6631254,0 C40.8491644,0 41,0.223875 41,0.5 C41,0.776125 40.8491644,1 40.6631254,1 Z" id="路径"></path>
        </g>
        <path d="M35.1911535,9 C35.136046,9 35.0813682,8.98348164 35.0435952,8.95157496 C34.9765015,8.89490736 34.9881533,7.81111908 35.0695731,7.76442232 L40.5085685,4.5 L35.0695731,1.23556634 C34.9881533,1.18890281 34.9765015,0.105114533 35.0435952,0.048446933 C35.1105456,-0.00825390286 35.2310277,-0.0163635183 35.3124475,0.0303664789 L42.9304231,4.39742763 C42.9744996,4.42268709 43,4.46031039 43,4.50002756 C43,4.53974474 42.9744996,4.57740127 42.9304231,4.60266073 L35.3124475,8.96968865 C35.2769189,8.9900624 35.2338452,9 35.1911535,9 Z" id="路径" fill="#000000" fill-rule="nonzero"></path>
    </g>
</svg>