<?xml version="1.0" ?><svg viewBox="0 0 64 64" xmlns="http://www.w3.org/2000/svg"><defs><style>.cls-1{fill:#222;}</style></defs><title/><g data-name="Folder" id="Folder-2"><path class="cls-1" d="M52.86,55.54H11.14A8.52,8.52,0,0,1,2.64,47V10a1.51,1.51,0,0,1,1.5-1.5H29.73A1.52,1.52,0,0,1,31,9.09l7.26,10.09H59.86a1.5,1.5,0,0,1,1.5,1.5V47A8.52,8.52,0,0,1,52.86,55.54ZM5.64,11.46V47a5.51,5.51,0,0,0,5.5,5.5H52.86a5.51,5.51,0,0,0,5.5-5.5V22.18H37.45a1.49,1.49,0,0,1-1.22-.62L29,11.46Z"/><path class="cls-1" d="M56.87,22.18a1.5,1.5,0,0,1-1.5-1.5V14.62H32a1.5,1.5,0,0,1,0-3H56.87a1.5,1.5,0,0,1,1.5,1.5v7.56A1.5,1.5,0,0,1,56.87,22.18Z"/></g></svg>