<?xml version="1.0" ?><!DOCTYPE svg  PUBLIC '-//W3C//DTD SVG 1.1//EN'  'http://www.w3.org/Graphics/SVG/1.1/DTD/svg11.dtd'><svg height="512px" style="enable-background:new 0 0 512 512;" version="1.1" viewBox="0 0 512 512" width="512px" xml:space="preserve" xmlns="http://www.w3.org/2000/svg" xmlns:xlink="http://www.w3.org/1999/xlink"><g id="_x36_87-_folder_setting__x2C__setting__x2C__gear_x2C_"><g><g><path d="M495.742,399.06H383.566c-2.209,0-4-1.791-4-4s1.791-4,4-4h108.176V41.393H20.914V391.06h108.114c2.209,0,4,1.791,4,4     s-1.791,4-4,4H16.914c-2.209,0-4-1.791-4-4V37.393c0-2.209,1.791-4,4-4h478.828c2.209,0,4,1.791,4,4V395.06     C499.742,397.269,497.951,399.06,495.742,399.06z"/></g><g><path d="M492.456,120.47H204.578c-0.769,0-1.521-0.221-2.167-0.637L167.516,97.35H21.004c-2.209,0-4-1.791-4-4s1.791-4,4-4     h147.689c0.769,0,1.521,0.221,2.167,0.637l34.896,22.483h286.701c2.209,0,4,1.791,4,4S494.665,120.47,492.456,120.47z"/></g><g><path d="M421.433,83.29h-15.867c-2.209,0-4-1.791-4-4s1.791-4,4-4h15.867c2.209,0,4,1.791,4,4S423.642,83.29,421.433,83.29z"/></g><g><path d="M447.959,83.29h-15.806c-2.209,0-4-1.791-4-4s1.791-4,4-4h15.806c2.209,0,4,1.791,4,4S450.168,83.29,447.959,83.29z"/></g><g><path d="M474.485,83.29H458.68c-2.209,0-4-1.791-4-4s1.791-4,4-4h15.806c2.209,0,4,1.791,4,4S476.694,83.29,474.485,83.29z"/></g><g><g><path d="M266.43,479.31h-20.203c-1.979,0-3.66-1.446-3.955-3.402l-5.455-36.104c-5.509-0.998-10.987-2.458-16.349-4.359      l-22.74,28.545c-1.232,1.547-3.411,1.961-5.125,0.974l-17.54-10.105c-1.717-0.989-2.451-3.087-1.725-4.931l13.381-33.992      c-4.208-3.594-8.225-7.618-11.992-12.013l-34.006,13.391c-1.844,0.726-3.943-0.009-4.932-1.726l-10.102-17.546      c-0.988-1.716-0.572-3.896,0.978-5.128l28.541-22.685c-1.902-5.409-3.362-10.903-4.359-16.398l-36.113-5.457      c-1.956-0.296-3.402-1.977-3.402-3.955v-10.104c0-2.209,1.791-4,4-4s4,1.791,4,4v6.663l35.582,5.377      c1.734,0.262,3.095,1.623,3.357,3.357c1.034,6.839,2.858,13.712,5.421,20.426c0.622,1.629,0.117,3.474-1.248,4.559      l-28.105,22.338l6.662,11.571l33.479-13.183c1.619-0.638,3.467-0.155,4.566,1.194c4.607,5.653,9.642,10.69,14.963,14.973      c1.364,1.097,1.856,2.953,1.215,4.581l-13.178,33.478l11.57,6.666l22.398-28.116c1.088-1.367,2.939-1.866,4.568-1.24      c6.635,2.56,13.483,4.384,20.354,5.422c1.734,0.262,3.095,1.623,3.357,3.357l5.375,35.573h13.321l5.374-35.573      c0.262-1.732,1.62-3.093,3.353-3.356c6.913-1.054,13.763-2.878,20.358-5.423c1.629-0.63,3.479-0.127,4.568,1.24l22.398,28.116      l11.569-6.666l-13.178-33.478c-0.642-1.628-0.149-3.484,1.215-4.581c5.322-4.282,10.356-9.319,14.963-14.972      c1.1-1.351,2.945-1.833,4.566-1.195l33.479,13.183l6.662-11.571l-28.167-22.397c-1.377-1.095-1.877-2.961-1.232-4.597      c2.576-6.539,4.416-13.378,5.467-20.329c0.263-1.733,1.624-3.095,3.357-3.356l35.581-5.377v-6.663c0-2.209,1.791-4,4-4      s4,1.791,4,4v10.104c0,1.979-1.446,3.659-3.402,3.955l-36.112,5.457c-1.008,5.562-2.481,11.042-4.397,16.358l28.581,22.726      c1.549,1.231,1.964,3.411,0.977,5.127l-10.103,17.546c-0.989,1.718-3.088,2.451-4.932,1.726l-34.005-13.391      c-3.767,4.395-7.785,8.419-11.992,12.013l13.381,33.992c0.726,1.844-0.009,3.941-1.726,4.931l-17.539,10.105      c-1.715,0.987-3.894,0.573-5.125-0.974l-22.741-28.545c-5.339,1.891-10.816,3.351-16.348,4.356l-5.455,36.106      C270.09,477.863,268.408,479.31,266.43,479.31z M256.329,390.069c-30.741,0-55.75-25.012-55.75-55.756c0-2.209,1.791-4,4-4      s4,1.791,4,4c0,26.333,21.421,47.756,47.75,47.756c26.329,0,47.749-21.423,47.749-47.756c0-2.209,1.791-4,4-4s4,1.791,4,4      C312.077,365.058,287.068,390.069,256.329,390.069z"/></g></g><g><path d="M441.202,338.313H71.454c-2.209,0-4-1.791-4-4s1.791-4,4-4h369.748c2.209,0,4,1.791,4,4S443.411,338.313,441.202,338.313     z"/></g><g><path d="M326.052,168.752H130.516c-2.209,0-4-1.791-4-4s1.791-4,4-4h195.536c2.209,0,4,1.791,4,4     S328.261,168.752,326.052,168.752z"/></g><g><path d="M382.079,168.752h-31.796c-2.209,0-4-1.791-4-4s1.791-4,4-4h31.796c2.209,0,4,1.791,4,4S384.288,168.752,382.079,168.752     z"/></g><g><path d="M284.589,200.169H130.516c-2.209,0-4-1.791-4-4s1.791-4,4-4h154.073c2.209,0,4,1.791,4,4     S286.798,200.169,284.589,200.169z"/></g><g><path d="M382.079,200.169h-31.796c-2.209,0-4-1.791-4-4s1.791-4,4-4h31.796c2.209,0,4,1.791,4,4S384.288,200.169,382.079,200.169     z"/></g><g><path d="M326.858,200.169h-22.19c-2.209,0-4-1.791-4-4s1.791-4,4-4h22.19c2.209,0,4,1.791,4,4S329.067,200.169,326.858,200.169z"/></g><g><path d="M382.079,228.682H228.007c-2.209,0-4-1.791-4-4s1.791-4,4-4h154.072c2.209,0,4,1.791,4,4     S384.288,228.682,382.079,228.682z"/></g><g><path d="M162.311,228.682h-31.795c-2.209,0-4-1.791-4-4s1.791-4,4-4h31.795c2.209,0,4,1.791,4,4S164.52,228.682,162.311,228.682z     "/></g><g><path d="M207.926,228.682h-22.128c-2.209,0-4-1.791-4-4s1.791-4,4-4h22.128c2.209,0,4,1.791,4,4S210.135,228.682,207.926,228.682     z"/></g><g><path d="M382.079,259.612h-192.81c-2.209,0-4-1.791-4-4s1.791-4,4-4h192.81c2.209,0,4,1.791,4,4S384.288,259.612,382.079,259.612     z"/></g><g><path d="M162.311,259.612h-31.795c-2.209,0-4-1.791-4-4s1.791-4,4-4h31.795c2.209,0,4,1.791,4,4S164.52,259.612,162.311,259.612z     "/></g><g><path d="M284.589,289.914H130.577c-2.209,0-4-1.791-4-4s1.791-4,4-4h154.012c2.209,0,4,1.791,4,4     S286.798,289.914,284.589,289.914z"/></g><g><path d="M382.079,289.914h-31.796c-2.209,0-4-1.791-4-4s1.791-4,4-4h31.796c2.209,0,4,1.791,4,4S384.288,289.914,382.079,289.914     z"/></g><g><path d="M326.858,289.914h-22.19c-2.209,0-4-1.791-4-4s1.791-4,4-4h22.19c2.209,0,4,1.791,4,4S329.067,289.914,326.858,289.914z"/></g></g></g><g id="Layer_1"/></svg>